<svg width="117" height="117" viewBox="0 0 117 117" fill="none" xmlns="http://www.w3.org/2000/svg">
<circle cx="58.5" cy="58.5" r="56" fill="#FF9AA2" stroke="white" stroke-width="5"/>
<path fill-rule="evenodd" clip-rule="evenodd" d="M59.8802 29.5471C61.4746 29.5471 63.0037 28.9199 64.1311 27.8036C65.2585 26.6873 65.8919 25.1732 65.8919 23.5945C65.8919 22.0158 65.2585 20.5017 64.1311 19.3854C63.0037 18.2691 61.4746 17.6419 59.8802 17.6419C58.2858 17.6419 56.7567 18.2691 55.6293 19.3854C54.5019 20.5017 53.8685 22.0158 53.8685 23.5945C53.8685 25.1732 54.5019 26.6873 55.6293 27.8036C56.7567 28.9199 58.2858 29.5471 59.8802 29.5471ZM59.8802 34.3091C62.7501 34.3091 65.5025 33.1803 67.5318 31.1709C69.5612 29.1615 70.7012 26.4362 70.7012 23.5945C70.7012 20.7528 69.5612 18.0275 67.5318 16.0181C65.5025 14.0087 62.7501 12.8799 59.8802 12.8799C57.0103 12.8799 54.2579 14.0087 52.2285 16.0181C50.1992 18.0275 49.0591 20.7528 49.0591 23.5945C49.0591 26.4362 50.1992 29.1615 52.2285 31.1709C54.2579 33.1803 57.0103 34.3091 59.8802 34.3091ZM49.2515 39.8022C49.908 39.5164 51.1247 39.0712 52.6661 39.0712H57.4755C58.8486 39.0712 59.9451 39.4617 60.2409 39.5688L60.2625 39.5736C60.7435 39.745 61.1883 39.945 61.5563 40.1212C62.3089 40.4855 63.1289 40.9474 63.9706 41.4737C66.0615 42.7992 68.0457 44.283 69.9053 45.9119C74.1808 49.6358 79.2451 55.2741 82.2076 62.61C84.0929 67.2721 83.9583 71.7699 82.2076 75.6866C80.5677 79.3487 77.7927 81.8845 75.4313 83.5369C68.097 88.6656 67.7531 91.9991 65.8871 101.237C65.8181 103.108 65.0103 104.877 63.6376 106.164C62.2648 107.451 60.4368 108.153 58.5468 108.119C56.6567 108.085 54.8557 107.317 53.5311 105.982C52.2065 104.647 51.4641 102.85 51.4638 100.978C51.4638 88.7561 51.459 81.4844 50.9011 74.608C49.3853 75.7009 47.4992 76.1665 45.6427 75.906C43.7861 75.6456 42.1049 74.6796 40.9554 73.2128C39.6904 71.5255 38.4747 69.8025 37.3099 68.0459C36.5698 66.947 35.8641 65.8258 35.1937 64.6839C34.8651 64.1193 34.5626 63.5401 34.2872 62.9481C34.1501 62.6458 33.9746 62.2338 33.8255 61.76C33.5669 60.9684 33.433 60.142 33.4287 59.3099C33.4287 57.6051 34.0539 56.2813 34.1934 55.9932V55.986L34.2006 55.9765C34.4267 55.486 34.6815 55.0479 34.8835 54.7146C35.2996 54.0336 35.8142 53.2883 36.3408 52.5716C37.5877 50.887 38.9001 49.2508 40.2748 47.6667C41.7176 46 43.3504 44.2452 44.8774 42.8475C45.6252 42.1618 46.5078 41.4189 47.4384 40.7998C47.9049 40.4879 48.5205 40.1165 49.2515 39.7998M52.6661 43.8333C50.8987 43.8333 49.3597 45.2285 48.1405 46.3452C46.8059 47.5667 45.3102 49.1691 43.9275 50.7668C42.638 52.2511 41.4067 53.784 40.2364 55.3622C39.6304 56.1908 39.0004 57.0384 38.5675 57.9694C38.361 58.3874 38.2486 58.8448 38.2381 59.3099C38.2381 60.3981 38.8489 61.4124 39.3731 62.3267C39.9093 63.2577 40.6139 64.3601 41.3233 65.422C42.4214 67.077 43.5657 68.7015 44.7548 70.2936C45.1485 70.7844 45.7218 71.1016 46.3503 71.1765C46.9787 71.2514 47.6116 71.0779 48.1117 70.6937C48.6118 70.3094 48.9388 69.7454 49.0216 69.1241C49.1044 68.5027 48.9364 67.874 48.5541 67.3745C46.9633 65.2336 45.4552 63.0335 44.0333 60.779L43.2013 59.4242L44.1416 58.1409C45.4966 56.3144 46.9386 54.5528 48.4628 52.8621L51.6802 49.281L52.6181 53.9812C56.2539 72.1865 56.2732 78.1748 56.2732 100.978C56.2732 101.609 56.5265 102.215 56.9775 102.662C57.4285 103.108 58.0401 103.359 58.6778 103.359C60.1712 103.359 61.0825 102.118 61.0825 100.742C63.0447 91.0276 64.1966 85.5632 72.6563 79.6463C74.6161 78.2772 76.648 76.3486 77.8095 73.7556C79.007 71.0794 79.1729 67.9174 77.7422 64.3791C75.1523 57.9647 70.658 52.9097 66.7287 49.4858C65.061 48.0244 63.2819 46.6926 61.4072 45.5023C60.5295 44.9547 59.6157 44.4071 58.637 44.0571C58.2662 43.9152 57.873 43.8394 57.4755 43.8333H52.6661Z" fill="white"/>
</svg>
